<?xml version="1.0" encoding="utf-8"?>
<svg height="250" viewBox="132.917 329.977 432.116 334.952" xmlns="http://www.w3.org/2000/svg" width="300">
  <path fill="#ffffff" transform="matrix(0.8868681780292985 0 0 0.8868681780292985 3.3403139479809862 -261.4006997246584)" d="M 265.64222145257 830.86577642069 L 265.64222145257 798.66577642069 L 297.34222145257 798.66577642069 C 301.44222145257 794.56577642069 305.64222145257 790.56577642069 309.74222145257 786.66577642069 L 259.64222145257 786.66577642069 C 256.34222145257 786.66577642069 253.64222145257 789.36577642069 253.64222145257 792.66577642069 L 253.64222145257 843.66577642069 C 257.54222145257 839.36577642069 261.54222145257 835.06577642069 265.64222145257 830.86577642069 Z" style=""/>
  <path fill="#ffffff" transform="matrix(0.8868681780292985 0 0 0.8868681780292985 3.3403139479809862 -261.4006997246584)" d="M 583.54222145257 995.06577642069 C 583.54222145257 994.46577642069 583.54222145257 991.16577642069 583.54222145257 990.56577642069 C 583.54222145257 988.56577642069 582.44222145257 986.86577642069 580.94222145257 985.86577642069 L 517.14222145257 940.76577642069 L 517.14222145257 851.56577642069 C 513.24222145257 846.86577642069 509.24222145257 839.76577642069 505.14222145257 835.06577642069 L 505.14222145257 937.26577642069 L 442.04222145257 937.26577642069 C 438.74222145257 941.76577642069 435.24222145257 946.06577642069 431.54222145257 950.06577642069 L 506.74222145257 950.06577642069 L 555.74222145257 984.96577642069 L 215.14222145257 984.96577642069 L 264.74222145257 950.06577642069 L 360.14222145257 950.06577642069 C 356.34222145257 946.06577642069 352.84222145257 941.76577642069 349.54222145257 937.26577642069 L 265.74222145257 937.26577642069 L 265.74222145257 857.26577642069 C 261.64222145257 861.96577642069 257.64222145257 866.66577642069 253.74222145257 871.46577642069 L 253.74222145257 940.86577642069 L 189.64222145257 986.16577642069 C 188.14222145257 987.16577642069 187.34222145257 988.86577642069 187.34222145257 990.56577642069 C 187.34222145257 991.16577642069 187.34222145257 994.66577642069 187.34222145257 996.26577642069 C 187.34222145257 998.66577642069 188.64222145257 999.76577642069 190.94222145257 999.76577642069 C 190.94222145257 999.76577642069 579.24222145257 999.76577642069 579.24222145257 999.76577642069 C 582.24222145257 999.56577642069 583.54222145257 998.06577642069 583.54222145257 995.06577642069 Z" style=""/>
  <path fill="#ffffff" d="M 463.24222145257 798.66577642069 C 458.84222145257 794.56577642069 462.24222145257 790.56577642069 457.74222145257 786.66577642069 L 335.94222145257 786.66577642069 C 331.44222145257 790.56577642069 327.14222145257 794.46577642069 322.94222145257 798.36577642069 C 322.84222145257 798.46577642069 322.74222145257 798.56577642069 322.64222145257 798.66577642069 L 463.24222145257 798.66577642069 Z" style="" transform="matrix(0.8868681780292985 0 0 0.8868681780292985 3.3403139479809862 -261.4006997246584)"/>
  <path fill="#ffffff" transform="matrix(0.8868681780292985 0 0 0.8868681780292985 3.3403139479809862 -261.4006997246584)" d="M 480.14222145257 786.66577642069 C 484.24222145257 790.56577642069 488.44222145257 794.56577642069 492.54222145257 798.66577642069 L 505.14222145257 798.66577642069 L 505.14222145257 811.46577642069 C 509.24222145257 815.76577642069 513.24222145257 820.06577642069 517.14222145257 824.26577642069 L 517.14222145257 792.66577642069 C 517.14222145257 789.36577642069 514.44222145257 786.66577642069 511.14222145257 786.66577642069 L 480.14222145257 786.66577642069 Z" style=""/>
  <path fill="#ffffff" transform="matrix(0.8868681780292985 0 0 0.8868681780292985 3.3403139479809862 -261.4006997246584)" d="M 386.54222145257 971.06577642069 C 385.34222145257 971.06577642069 384.24222145257 970.76577642069 383.14222145257 970.26577642069 C 353.04222145257 955.46577642069 330.84222145257 929.36577642069 318.84222145257 894.66577642069 C 309.94222145257 868.76577642069 309.74222145257 847.26577642069 309.74222145257 846.36577642069 C 309.74222145257 843.26577642069 311.64222145257 840.36577642069 314.54222145257 839.26577642069 L 383.64222145257 811.86577642069 C 385.44222145257 811.16577642069 387.44222145257 811.16577642069 389.24222145257 811.86577642069 L 458.34222145257 839.26577642069 C 461.24222145257 840.46577642069 463.14222145257 843.26577642069 463.14222145257 846.36577642069 C 463.14222145257 847.26577642069 463.04222145257 869.36577642069 454.14222145257 895.56577642069 C 442.14222145257 930.76577642069 419.84222145257 956.66577642069 389.64222145257 970.36577642069 C 388.74222145257 970.86577642069 387.64222145257 971.06577642069 386.54222145257 971.06577642069 Z M 325.34222145257 851.46577642069 C 325.94222145257 858.86577642069 327.74222145257 873.66577642069 333.44222145257 890.16577642069 C 343.84222145257 919.86577642069 361.64222145257 941.66577642069 386.54222145257 954.86577642069 C 438.04222145257 929.16577642069 446.24222145257 869.36577642069 447.54222145257 851.46577642069 L 386.34222145257 827.26577642069 L 325.34222145257 851.46577642069 Z" style=""/>
  <path fill="#ffffff" transform="matrix(0.8868681780292985 0 0 0.8868681780292985 3.3403139479809862 -261.4006997246584)" d="M 281.44222145257 766.76577642069 C 277.74222145257 761.06577642069 274.54222145257 755.06577642069 271.74222145257 748.76577642069 C 269.04222145257 742.46577642069 266.84222145257 735.86577642069 265.54222145257 728.86577642069 C 264.94222145257 725.36577642069 264.54222145257 721.76577642069 264.64222145257 718.06577642069 C 264.74222145257 714.36577642069 265.24222145257 710.56577642069 266.64222145257 706.76577642069 C 267.94222145257 703.06577642069 270.14222145257 699.36577642069 273.14222145257 696.46577642069 C 276.14222145257 693.46577642069 279.84222145257 691.36577642069 283.54222145257 690.06577642069 C 287.34222145257 688.66577642069 291.14222145257 688.06577642069 294.94222145257 687.86577642069 C 298.74222145257 687.66577642069 302.34222145257 687.76577642069 305.94222145257 688.16577642069 C 313.14222145257 688.96577642069 320.04222145257 690.66577642069 326.74222145257 692.76577642069 C 333.44222145257 694.86577642069 339.94222145257 697.36577642069 346.24222145257 700.16577642069 C 352.54222145257 702.96577642069 358.74222145257 705.96577642069 364.84222145257 709.26577642069 C 376.94222145257 715.76577642069 388.64222145257 722.86577642069 399.94222145257 730.56577642069 C 411.24222145257 738.16577642069 422.24222145257 746.36577642069 432.84222145257 754.76577642069 C 454.14222145257 771.66577642069 474.24222145257 790.06577642069 493.34222145257 809.46577642069 C 512.44222145257 828.86577642069 530.44222145257 849.26577642069 547.04222145257 870.86577642069 C 551.14222145257 876.26577642069 555.24222145257 881.76577642069 559.14222145257 887.36577642069 C 563.04222145257 892.96577642069 566.84222145257 898.66577642069 570.54222145257 904.36577642069 C 574.24222145257 910.16577642069 577.74222145257 915.96577642069 581.14222145257 921.96577642069 C 584.54222145257 927.96577642069 587.74222145257 934.06577642069 590.64222145257 940.26577642069 C 593.54222145257 946.46577642069 596.34222145257 952.86577642069 598.74222145257 959.36577642069 C 601.14222145257 965.86577642069 603.24222145257 972.56577642069 604.64222145257 979.56577642069 C 606.04222145257 986.56577642069 606.84222145257 993.76577642069 606.04222145257 1001.26577642069 C 605.64222145257 1004.96577642069 604.74222145257 1008.86577642069 603.04222145257 1012.46577642069 C 601.44222145257 1016.06577642069 598.94222145257 1019.56577642069 595.84222145257 1022.16577642069 C 592.64222145257 1024.86577642069 589.04222145257 1026.56577642069 585.24222145257 1027.66577642069 C 581.54222145257 1028.66577642069 577.74222145257 1029.06577642069 574.14222145257 1029.06577642069 C 570.54222145257 1029.06577642069 566.94222145257 1028.66577642069 563.44222145257 1028.06577642069 C 559.94222145257 1027.36577642069 556.64222145257 1026.56577642069 553.34222145257 1025.56577642069 C 550.04222145257 1024.56577642069 546.84222145257 1023.36577642069 543.64222145257 1022.06577642069 C 540.44222145257 1020.76577642069 537.34222145257 1019.36577642069 534.34222145257 1017.86577642069 C 528.24222145257 1014.86577642069 522.34222145257 1011.46577642069 516.74222145257 1007.66577642069 C 529.34222145257 1012.46577642069 542.04222145257 1017.06577642069 554.84222145257 1019.66577642069 C 558.04222145257 1020.36577642069 561.24222145257 1020.86577642069 564.44222145257 1021.16577642069 C 567.64222145257 1021.46577642069 570.84222145257 1021.56577642069 573.84222145257 1021.46577642069 C 576.94222145257 1021.26577642069 579.94222145257 1020.76577642069 582.64222145257 1019.86577642069 C 585.34222145257 1018.96577642069 587.84222145257 1017.56577642069 589.64222145257 1015.76577642069 C 593.54222145257 1012.06577642069 595.34222145257 1006.66577642069 595.64222145257 1000.76577642069 C 595.94222145257 994.86577642069 594.94222145257 988.56577642069 593.34222145257 982.46577642069 C 591.74222145257 976.36577642069 589.54222145257 970.26577642069 587.04222145257 964.26577642069 C 584.54222145257 958.26577642069 581.64222145257 952.36577642069 578.54222145257 946.56577642069 C 566.14222145257 923.46577642069 550.84222145257 901.66577642069 534.54222145257 880.76577642069 C 526.34222145257 870.36577642069 517.84222145257 860.16577642069 509.04222145257 850.16577642069 C 500.24222145257 840.16577642069 491.14222145257 830.46577642069 481.84222145257 820.96577642069 C 463.14222145257 802.06577642069 443.54222145257 783.96577642069 422.94222145257 767.16577642069 C 402.34222145257 750.36577642069 380.84222145257 734.66577642069 358.04222145257 721.46577642069 C 346.64222145257 714.96577642069 334.94222145257 708.96577642069 322.74222145257 704.56577642069 C 316.64222145257 702.36577642069 310.54222145257 700.66577642069 304.34222145257 699.66577642069 C 298.24222145257 698.76577642069 292.04222145257 698.66577642069 286.84222145257 700.26577642069 C 284.24222145257 701.06577642069 281.94222145257 702.36577642069 280.04222145257 704.06577642069 C 278.04222145257 705.76577642069 276.64222145257 707.96577642069 275.54222145257 710.46577642069 C 273.34222145257 715.56577642069 272.84222145257 721.86577642069 273.14222145257 728.16577642069 C 273.44222145257 734.56577642069 274.64222145257 741.06577642069 276.04222145257 747.46577642069 C 277.74222145257 753.76577642069 279.54222145257 760.16577642069 281.44222145257 766.76577642069 Z" style=""/>
  <path fill="#ffffff" transform="matrix(0.8868681780292985 0 0 0.8868681780292985 3.3403139479809862 -261.4006997246584)" d="M 490.44222145257 766.76577642069 C 492.44222145257 760.26577642069 494.34222145257 753.86577642069 495.84222145257 747.36577642069 C 497.34222145257 740.86577642069 498.54222145257 734.36577642069 498.94222145257 727.96577642069 C 499.34222145257 721.56577642069 498.84222145257 715.16577642069 496.54222145257 709.96577642069 C 495.34222145257 707.36577642069 493.94222145257 705.16577642069 491.84222145257 703.36577642069 C 489.94222145257 701.66577642069 487.54222145257 700.36577642069 484.84222145257 699.56577642069 C 479.44222145257 697.96577642069 473.24222145257 698.06577642069 467.04222145257 699.06577642069 C 460.84222145257 700.06577642069 454.64222145257 701.86577642069 448.54222145257 704.06577642069 C 436.34222145257 708.46577642069 424.54222145257 714.56577642069 413.14222145257 721.06577642069 C 390.24222145257 734.36577642069 368.74222145257 750.16577642069 348.24222145257 767.06577642069 C 337.94222145257 775.56577642069 327.94222145257 784.26577642069 318.14222145257 793.36577642069 C 308.34222145257 802.36577642069 298.74222145257 811.66577642069 289.44222145257 821.16577642069 C 280.14222145257 830.66577642069 271.04222145257 840.46577642069 262.24222145257 850.46577642069 C 253.44222145257 860.46577642069 244.94222145257 870.76577642069 236.74222145257 881.16577642069 C 232.64222145257 886.36577642069 228.64222145257 891.66577642069 224.74222145257 897.06577642069 C 220.84222145257 902.46577642069 217.04222145257 907.86577642069 213.34222145257 913.36577642069 C 205.94222145257 924.36577642069 199.04222145257 935.66577642069 192.84222145257 947.26577642069 C 186.74222145257 958.86577642069 181.44222145257 970.96577642069 178.34222145257 983.26577642069 C 176.84222145257 989.36577642069 175.94222145257 995.66577642069 176.34222145257 1001.46577642069 C 176.74222145257 1007.26577642069 178.84222145257 1012.56577642069 182.84222145257 1015.96577642069 C 184.84222145257 1017.66577642069 187.34222145257 1018.96577642069 190.04222145257 1019.76577642069 C 192.84222145257 1020.66577642069 195.84222145257 1021.06577642069 198.94222145257 1021.16577642069 C 205.14222145257 1021.46577642069 211.64222145257 1020.56577642069 218.04222145257 1019.26577642069 C 230.94222145257 1016.56577642069 243.64222145257 1011.96577642069 256.24222145257 1007.06577642069 C 250.64222145257 1010.86577642069 244.74222145257 1014.26577642069 238.64222145257 1017.36577642069 C 235.64222145257 1018.86577642069 232.54222145257 1020.36577642069 229.34222145257 1021.66577642069 C 226.14222145257 1022.96577642069 222.94222145257 1024.16577642069 219.64222145257 1025.26577642069 C 216.34222145257 1026.36577642069 212.94222145257 1027.26577642069 209.54222145257 1027.96577642069 C 206.04222145257 1028.66577642069 202.54222145257 1029.16577642069 198.94222145257 1029.26577642069 C 195.34222145257 1029.36577642069 191.54222145257 1029.16577642069 187.84222145257 1028.26577642069 C 184.14222145257 1027.36577642069 180.34222145257 1025.86577642069 177.04222145257 1023.36577642069 C 173.74222145257 1020.86577642069 171.04222145257 1017.56577642069 169.24222145257 1013.96577642069 C 167.44222145257 1010.36577642069 166.44222145257 1006.46577642069 165.84222145257 1002.66577642069 C 164.84222145257 995.06577642069 165.54222145257 987.76577642069 166.84222145257 980.76577642069 C 168.14222145257 973.76577642069 170.24222145257 966.96577642069 172.54222145257 960.46577642069 C 174.94222145257 953.86577642069 177.64222145257 947.46577642069 180.54222145257 941.26577642069 C 186.44222145257 928.76577642069 193.24222145257 916.76577642069 200.54222145257 905.16577642069 C 204.24222145257 899.36577642069 208.04222145257 893.66577642069 211.94222145257 888.06577642069 C 215.84222145257 882.46577642069 219.94222145257 876.96577642069 224.04222145257 871.56577642069 C 240.64222145257 849.86577642069 258.74222145257 829.46577642069 277.94222145257 810.06577642069 C 297.04222145257 790.66577642069 317.24222145257 772.26577642069 338.64222145257 755.36577642069 C 349.34222145257 746.86577642069 360.34222145257 738.76577642069 371.64222145257 731.16577642069 C 382.94222145257 723.46577642069 394.64222145257 716.36577642069 406.74222145257 709.86577642069 C 412.84222145257 706.66577642069 418.94222145257 703.56577642069 425.34222145257 700.76577642069 C 431.64222145257 697.96577642069 438.14222145257 695.46577642069 444.84222145257 693.36577642069 C 451.54222145257 691.26577642069 458.34222145257 689.56577642069 465.54222145257 688.76577642069 C 469.14222145257 688.36577642069 472.74222145257 688.16577642069 476.54222145257 688.36577642069 C 480.24222145257 688.56577642069 484.04222145257 689.16577642069 487.84222145257 690.46577642069 C 491.54222145257 691.76577642069 495.14222145257 693.86577642069 498.14222145257 696.76577642069 C 501.04222145257 699.56577642069 503.24222145257 703.16577642069 504.54222145257 706.86577642069 C 505.84222145257 710.56577642069 506.44222145257 714.36577642069 506.54222145257 717.96577642069 C 506.64222145257 721.66577642069 506.34222145257 725.26577642069 505.74222145257 728.76577642069 C 504.54222145257 735.76577642069 502.34222145257 742.36577642069 499.74222145257 748.66577642069 C 497.24222145257 754.96577642069 494.14222145257 760.96577642069 490.44222145257 766.76577642069 Z" style=""/>
</svg>