<?xml version="1.0" encoding="utf-8"?>
<svg width="280" height="130" viewBox="132.917 329.977 738.718 341.666" xmlns="http://www.w3.org/2000/svg">
  <path fill="#ffffff" transform="matrix(0.8868681780292985 0 0 0.8868681780292985 3.3403139479809862 -261.4006997246584)" d="M 265.64222145257 830.86577642069 L 265.64222145257 798.66577642069 L 297.34222145257 798.66577642069 C 301.44222145257 794.56577642069 305.64222145257 790.56577642069 309.74222145257 786.66577642069 L 259.64222145257 786.66577642069 C 256.34222145257 786.66577642069 253.64222145257 789.36577642069 253.64222145257 792.66577642069 L 253.64222145257 843.66577642069 C 257.54222145257 839.36577642069 261.54222145257 835.06577642069 265.64222145257 830.86577642069 Z" style=""/>
  <path fill="#ffffff" transform="matrix(0.8868681780292985 0 0 0.8868681780292985 3.3403139479809862 -261.4006997246584)" d="M 583.54222145257 995.06577642069 C 583.54222145257 994.46577642069 583.54222145257 991.16577642069 583.54222145257 990.56577642069 C 583.54222145257 988.56577642069 582.44222145257 986.86577642069 580.94222145257 985.86577642069 L 517.14222145257 940.76577642069 L 517.14222145257 851.56577642069 C 513.24222145257 846.86577642069 509.24222145257 839.76577642069 505.14222145257 835.06577642069 L 505.14222145257 937.26577642069 L 442.04222145257 937.26577642069 C 438.74222145257 941.76577642069 435.24222145257 946.06577642069 431.54222145257 950.06577642069 L 506.74222145257 950.06577642069 L 555.74222145257 984.96577642069 L 215.14222145257 984.96577642069 L 264.74222145257 950.06577642069 L 360.14222145257 950.06577642069 C 356.34222145257 946.06577642069 352.84222145257 941.76577642069 349.54222145257 937.26577642069 L 265.74222145257 937.26577642069 L 265.74222145257 857.26577642069 C 261.64222145257 861.96577642069 257.64222145257 866.66577642069 253.74222145257 871.46577642069 L 253.74222145257 940.86577642069 L 189.64222145257 986.16577642069 C 188.14222145257 987.16577642069 187.34222145257 988.86577642069 187.34222145257 990.56577642069 C 187.34222145257 991.16577642069 187.34222145257 994.66577642069 187.34222145257 996.26577642069 C 187.34222145257 998.66577642069 188.64222145257 999.76577642069 190.94222145257 999.76577642069 C 190.94222145257 999.76577642069 579.24222145257 999.76577642069 579.24222145257 999.76577642069 C 582.24222145257 999.56577642069 583.54222145257 998.06577642069 583.54222145257 995.06577642069 Z" style=""/>
  <path fill="#ffffff" transform="matrix(0.8868681780292985 0 0 0.8868681780292985 3.3403139479809862 -261.4006997246584)" d="M 463.24222145257 798.66577642069 C 458.84222145257 794.56577642069 462.24222145257 790.56577642069 457.74222145257 786.66577642069 L 335.94222145257 786.66577642069 C 331.44222145257 790.56577642069 327.14222145257 794.46577642069 322.94222145257 798.36577642069 C 322.84222145257 798.46577642069 322.74222145257 798.56577642069 322.64222145257 798.66577642069 L 463.24222145257 798.66577642069 Z" style=""/>
  <path fill="#ffffff" transform="matrix(0.8868681780292985 0 0 0.8868681780292985 3.3403139479809862 -261.4006997246584)" d="M 480.14222145257 786.66577642069 C 484.24222145257 790.56577642069 488.44222145257 794.56577642069 492.54222145257 798.66577642069 L 505.14222145257 798.66577642069 L 505.14222145257 811.46577642069 C 509.24222145257 815.76577642069 513.24222145257 820.06577642069 517.14222145257 824.26577642069 L 517.14222145257 792.66577642069 C 517.14222145257 789.36577642069 514.44222145257 786.66577642069 511.14222145257 786.66577642069 L 480.14222145257 786.66577642069 Z" style=""/>
  <path fill="#ffffff" transform="matrix(0.8868681780292985 0 0 0.8868681780292985 3.3403139479809862 -261.4006997246584)" d="M 386.54222145257 971.06577642069 C 385.34222145257 971.06577642069 384.24222145257 970.76577642069 383.14222145257 970.26577642069 C 353.04222145257 955.46577642069 330.84222145257 929.36577642069 318.84222145257 894.66577642069 C 309.94222145257 868.76577642069 309.74222145257 847.26577642069 309.74222145257 846.36577642069 C 309.74222145257 843.26577642069 311.64222145257 840.36577642069 314.54222145257 839.26577642069 L 383.64222145257 811.86577642069 C 385.44222145257 811.16577642069 387.44222145257 811.16577642069 389.24222145257 811.86577642069 L 458.34222145257 839.26577642069 C 461.24222145257 840.46577642069 463.14222145257 843.26577642069 463.14222145257 846.36577642069 C 463.14222145257 847.26577642069 463.04222145257 869.36577642069 454.14222145257 895.56577642069 C 442.14222145257 930.76577642069 419.84222145257 956.66577642069 389.64222145257 970.36577642069 C 388.74222145257 970.86577642069 387.64222145257 971.06577642069 386.54222145257 971.06577642069 Z M 325.34222145257 851.46577642069 C 325.94222145257 858.86577642069 327.74222145257 873.66577642069 333.44222145257 890.16577642069 C 343.84222145257 919.86577642069 361.64222145257 941.66577642069 386.54222145257 954.86577642069 C 438.04222145257 929.16577642069 446.24222145257 869.36577642069 447.54222145257 851.46577642069 L 386.34222145257 827.26577642069 L 325.34222145257 851.46577642069 Z" style=""/>
  <path fill="#ffffff" transform="matrix(0.8868681780292985 0 0 0.8868681780292985 3.3403139479809862 -261.4006997246584)" d="M 281.44222145257 766.76577642069 C 277.74222145257 761.06577642069 274.54222145257 755.06577642069 271.74222145257 748.76577642069 C 269.04222145257 742.46577642069 266.84222145257 735.86577642069 265.54222145257 728.86577642069 C 264.94222145257 725.36577642069 264.54222145257 721.76577642069 264.64222145257 718.06577642069 C 264.74222145257 714.36577642069 265.24222145257 710.56577642069 266.64222145257 706.76577642069 C 267.94222145257 703.06577642069 270.14222145257 699.36577642069 273.14222145257 696.46577642069 C 276.14222145257 693.46577642069 279.84222145257 691.36577642069 283.54222145257 690.06577642069 C 287.34222145257 688.66577642069 291.14222145257 688.06577642069 294.94222145257 687.86577642069 C 298.74222145257 687.66577642069 302.34222145257 687.76577642069 305.94222145257 688.16577642069 C 313.14222145257 688.96577642069 320.04222145257 690.66577642069 326.74222145257 692.76577642069 C 333.44222145257 694.86577642069 339.94222145257 697.36577642069 346.24222145257 700.16577642069 C 352.54222145257 702.96577642069 358.74222145257 705.96577642069 364.84222145257 709.26577642069 C 376.94222145257 715.76577642069 388.64222145257 722.86577642069 399.94222145257 730.56577642069 C 411.24222145257 738.16577642069 422.24222145257 746.36577642069 432.84222145257 754.76577642069 C 454.14222145257 771.66577642069 474.24222145257 790.06577642069 493.34222145257 809.46577642069 C 512.44222145257 828.86577642069 530.44222145257 849.26577642069 547.04222145257 870.86577642069 C 551.14222145257 876.26577642069 555.24222145257 881.76577642069 559.14222145257 887.36577642069 C 563.04222145257 892.96577642069 566.84222145257 898.66577642069 570.54222145257 904.36577642069 C 574.24222145257 910.16577642069 577.74222145257 915.96577642069 581.14222145257 921.96577642069 C 584.54222145257 927.96577642069 587.74222145257 934.06577642069 590.64222145257 940.26577642069 C 593.54222145257 946.46577642069 596.34222145257 952.86577642069 598.74222145257 959.36577642069 C 601.14222145257 965.86577642069 603.24222145257 972.56577642069 604.64222145257 979.56577642069 C 606.04222145257 986.56577642069 606.84222145257 993.76577642069 606.04222145257 1001.26577642069 C 605.64222145257 1004.96577642069 604.74222145257 1008.86577642069 603.04222145257 1012.46577642069 C 601.44222145257 1016.06577642069 598.94222145257 1019.56577642069 595.84222145257 1022.16577642069 C 592.64222145257 1024.86577642069 589.04222145257 1026.56577642069 585.24222145257 1027.66577642069 C 581.54222145257 1028.66577642069 577.74222145257 1029.06577642069 574.14222145257 1029.06577642069 C 570.54222145257 1029.06577642069 566.94222145257 1028.66577642069 563.44222145257 1028.06577642069 C 559.94222145257 1027.36577642069 556.64222145257 1026.56577642069 553.34222145257 1025.56577642069 C 550.04222145257 1024.56577642069 546.84222145257 1023.36577642069 543.64222145257 1022.06577642069 C 540.44222145257 1020.76577642069 537.34222145257 1019.36577642069 534.34222145257 1017.86577642069 C 528.24222145257 1014.86577642069 522.34222145257 1011.46577642069 516.74222145257 1007.66577642069 C 529.34222145257 1012.46577642069 542.04222145257 1017.06577642069 554.84222145257 1019.66577642069 C 558.04222145257 1020.36577642069 561.24222145257 1020.86577642069 564.44222145257 1021.16577642069 C 567.64222145257 1021.46577642069 570.84222145257 1021.56577642069 573.84222145257 1021.46577642069 C 576.94222145257 1021.26577642069 579.94222145257 1020.76577642069 582.64222145257 1019.86577642069 C 585.34222145257 1018.96577642069 587.84222145257 1017.56577642069 589.64222145257 1015.76577642069 C 593.54222145257 1012.06577642069 595.34222145257 1006.66577642069 595.64222145257 1000.76577642069 C 595.94222145257 994.86577642069 594.94222145257 988.56577642069 593.34222145257 982.46577642069 C 591.74222145257 976.36577642069 589.54222145257 970.26577642069 587.04222145257 964.26577642069 C 584.54222145257 958.26577642069 581.64222145257 952.36577642069 578.54222145257 946.56577642069 C 566.14222145257 923.46577642069 550.84222145257 901.66577642069 534.54222145257 880.76577642069 C 526.34222145257 870.36577642069 517.84222145257 860.16577642069 509.04222145257 850.16577642069 C 500.24222145257 840.16577642069 491.14222145257 830.46577642069 481.84222145257 820.96577642069 C 463.14222145257 802.06577642069 443.54222145257 783.96577642069 422.94222145257 767.16577642069 C 402.34222145257 750.36577642069 380.84222145257 734.66577642069 358.04222145257 721.46577642069 C 346.64222145257 714.96577642069 334.94222145257 708.96577642069 322.74222145257 704.56577642069 C 316.64222145257 702.36577642069 310.54222145257 700.66577642069 304.34222145257 699.66577642069 C 298.24222145257 698.76577642069 292.04222145257 698.66577642069 286.84222145257 700.26577642069 C 284.24222145257 701.06577642069 281.94222145257 702.36577642069 280.04222145257 704.06577642069 C 278.04222145257 705.76577642069 276.64222145257 707.96577642069 275.54222145257 710.46577642069 C 273.34222145257 715.56577642069 272.84222145257 721.86577642069 273.14222145257 728.16577642069 C 273.44222145257 734.56577642069 274.64222145257 741.06577642069 276.04222145257 747.46577642069 C 277.74222145257 753.76577642069 279.54222145257 760.16577642069 281.44222145257 766.76577642069 Z" style=""/>
  <path fill="#ffffff" transform="matrix(0.8868681780292985 0 0 0.8868681780292985 3.3403139479809862 -261.4006997246584)" d="M 490.44222145257 766.76577642069 C 492.44222145257 760.26577642069 494.34222145257 753.86577642069 495.84222145257 747.36577642069 C 497.34222145257 740.86577642069 498.54222145257 734.36577642069 498.94222145257 727.96577642069 C 499.34222145257 721.56577642069 498.84222145257 715.16577642069 496.54222145257 709.96577642069 C 495.34222145257 707.36577642069 493.94222145257 705.16577642069 491.84222145257 703.36577642069 C 489.94222145257 701.66577642069 487.54222145257 700.36577642069 484.84222145257 699.56577642069 C 479.44222145257 697.96577642069 473.24222145257 698.06577642069 467.04222145257 699.06577642069 C 460.84222145257 700.06577642069 454.64222145257 701.86577642069 448.54222145257 704.06577642069 C 436.34222145257 708.46577642069 424.54222145257 714.56577642069 413.14222145257 721.06577642069 C 390.24222145257 734.36577642069 368.74222145257 750.16577642069 348.24222145257 767.06577642069 C 337.94222145257 775.56577642069 327.94222145257 784.26577642069 318.14222145257 793.36577642069 C 308.34222145257 802.36577642069 298.74222145257 811.66577642069 289.44222145257 821.16577642069 C 280.14222145257 830.66577642069 271.04222145257 840.46577642069 262.24222145257 850.46577642069 C 253.44222145257 860.46577642069 244.94222145257 870.76577642069 236.74222145257 881.16577642069 C 232.64222145257 886.36577642069 228.64222145257 891.66577642069 224.74222145257 897.06577642069 C 220.84222145257 902.46577642069 217.04222145257 907.86577642069 213.34222145257 913.36577642069 C 205.94222145257 924.36577642069 199.04222145257 935.66577642069 192.84222145257 947.26577642069 C 186.74222145257 958.86577642069 181.44222145257 970.96577642069 178.34222145257 983.26577642069 C 176.84222145257 989.36577642069 175.94222145257 995.66577642069 176.34222145257 1001.46577642069 C 176.74222145257 1007.26577642069 178.84222145257 1012.56577642069 182.84222145257 1015.96577642069 C 184.84222145257 1017.66577642069 187.34222145257 1018.96577642069 190.04222145257 1019.76577642069 C 192.84222145257 1020.66577642069 195.84222145257 1021.06577642069 198.94222145257 1021.16577642069 C 205.14222145257 1021.46577642069 211.64222145257 1020.56577642069 218.04222145257 1019.26577642069 C 230.94222145257 1016.56577642069 243.64222145257 1011.96577642069 256.24222145257 1007.06577642069 C 250.64222145257 1010.86577642069 244.74222145257 1014.26577642069 238.64222145257 1017.36577642069 C 235.64222145257 1018.86577642069 232.54222145257 1020.36577642069 229.34222145257 1021.66577642069 C 226.14222145257 1022.96577642069 222.94222145257 1024.16577642069 219.64222145257 1025.26577642069 C 216.34222145257 1026.36577642069 212.94222145257 1027.26577642069 209.54222145257 1027.96577642069 C 206.04222145257 1028.66577642069 202.54222145257 1029.16577642069 198.94222145257 1029.26577642069 C 195.34222145257 1029.36577642069 191.54222145257 1029.16577642069 187.84222145257 1028.26577642069 C 184.14222145257 1027.36577642069 180.34222145257 1025.86577642069 177.04222145257 1023.36577642069 C 173.74222145257 1020.86577642069 171.04222145257 1017.56577642069 169.24222145257 1013.96577642069 C 167.44222145257 1010.36577642069 166.44222145257 1006.46577642069 165.84222145257 1002.66577642069 C 164.84222145257 995.06577642069 165.54222145257 987.76577642069 166.84222145257 980.76577642069 C 168.14222145257 973.76577642069 170.24222145257 966.96577642069 172.54222145257 960.46577642069 C 174.94222145257 953.86577642069 177.64222145257 947.46577642069 180.54222145257 941.26577642069 C 186.44222145257 928.76577642069 193.24222145257 916.76577642069 200.54222145257 905.16577642069 C 204.24222145257 899.36577642069 208.04222145257 893.66577642069 211.94222145257 888.06577642069 C 215.84222145257 882.46577642069 219.94222145257 876.96577642069 224.04222145257 871.56577642069 C 240.64222145257 849.86577642069 258.74222145257 829.46577642069 277.94222145257 810.06577642069 C 297.04222145257 790.66577642069 317.24222145257 772.26577642069 338.64222145257 755.36577642069 C 349.34222145257 746.86577642069 360.34222145257 738.76577642069 371.64222145257 731.16577642069 C 382.94222145257 723.46577642069 394.64222145257 716.36577642069 406.74222145257 709.86577642069 C 412.84222145257 706.66577642069 418.94222145257 703.56577642069 425.34222145257 700.76577642069 C 431.64222145257 697.96577642069 438.14222145257 695.46577642069 444.84222145257 693.36577642069 C 451.54222145257 691.26577642069 458.34222145257 689.56577642069 465.54222145257 688.76577642069 C 469.14222145257 688.36577642069 472.74222145257 688.16577642069 476.54222145257 688.36577642069 C 480.24222145257 688.56577642069 484.04222145257 689.16577642069 487.84222145257 690.46577642069 C 491.54222145257 691.76577642069 495.14222145257 693.86577642069 498.14222145257 696.76577642069 C 501.04222145257 699.56577642069 503.24222145257 703.16577642069 504.54222145257 706.86577642069 C 505.84222145257 710.56577642069 506.44222145257 714.36577642069 506.54222145257 717.96577642069 C 506.64222145257 721.66577642069 506.34222145257 725.26577642069 505.74222145257 728.76577642069 C 504.54222145257 735.76577642069 502.34222145257 742.36577642069 499.74222145257 748.66577642069 C 497.24222145257 754.96577642069 494.14222145257 760.96577642069 490.44222145257 766.76577642069 Z" style=""/>
  <path id="text" fill="#ffffff" transform="matrix(0.7193913453194998 0 0 0.7193913453194998 429.9459418249447 -175.0187732733501)" d="M 170.84176787665 911.48334819221 L 171.73239287665 907.35834819221 L 192.31051787665 907.35834819221 L 214.38864287665 959.20209819221 L 234.82614287665 907.35834819221 L 257.18551787665 907.35834819221 L 256.38864287665 911.76459819221 L 247.99801787665 914.81147319221 L 247.99801787665 965.29584819221 L 256.90426787665 968.34272319221 L 256.06051787665 972.23334819221 L 226.95114287665 972.23334819221 L 227.70114287665 968.24897319221 L 235.99801787665 965.24897319221 L 235.99801787665 918.37397319221 C 233.40426787665 926.53022319221 230.49801787665 934.91303569221 227.27926787665 943.52241069221 C 224.06051787665 952.13178569221 220.46676787665 961.31147319221 216.49801787665 971.06147319221 L 206.79489287665 972.93647319221 L 185.41989287665 918.65522319221 C 186.07614287665 923.62397319221 186.49801787665 929.67084819221 186.68551787665 936.79584819221 C 186.87301787665 943.92084819221 186.98239287665 952.85834819221 187.01364287665 963.60834819221 L 187.01364287665 965.29584819221 L 195.77926787665 968.34272319221 L 195.02926787665 972.23334819221 L 170.51364287665 972.23334819221 L 171.31051787665 968.20209819221 L 179.46676787665 965.24897319221 L 179.46676787665 914.57709819221 L 170.84176787665 911.48334819221 Z M 310.59920537665 949.75678569221 C 310.23983037665 950.02241069221 309.71639287665 950.15522319221 309.02889287665 950.15522319221 L 284.18514287665 950.15522319221 C 284.46639287665 952.90522319221 285.20858037665 955.49897319221 286.41170537665 957.93647319221 C 287.61483037665 960.37397319221 289.16951787665 962.33491069221 291.07576787665 963.81928569221 C 292.98201787665 965.30366069221 295.07576787665 966.04584819221 297.35701787665 966.04584819221 C 299.29451787665 966.04584819221 301.66170537665 965.71772319221 304.45858037665 965.06147319221 C 307.25545537665 964.40522319221 309.21639287665 963.85834819221 310.34139287665 963.42084819221 L 311.27889287665 965.01459819221 C 310.12264287665 966.45209819221 308.61483037665 967.81147319221 306.75545537665 969.09272319221 C 304.89608037665 970.37397319221 302.82576787665 971.41303569221 300.54451787665 972.20991069221 C 298.26326787665 973.00678569221 295.98201787665 973.40522319221 293.70076787665 973.40522319221 C 290.01326787665 973.40522319221 286.61483037665 972.61616069221 283.50545537665 971.03803569221 C 280.39608037665 969.45991069221 277.88826787665 966.97553569221 275.98201787665 963.58491069221 C 274.07576787665 960.19428569221 273.12264287665 955.93647319221 273.12264287665 950.81147319221 C 273.12264287665 946.40522319221 274.06795537665 942.35053569221 275.95858037665 938.64741069221 C 277.84920537665 934.94428569221 280.52889287665 931.99897319221 283.99764287665 929.81147319221 C 287.46639287665 927.62397319221 291.45076787665 926.53022319221 295.95076787665 926.53022319221 C 299.35701787665 926.53022319221 302.31014287665 927.21772319221 304.81014287665 928.59272319221 C 307.31014287665 929.96772319221 309.23201787665 931.83491069221 310.57576787665 934.19428569221 C 311.91951787665 936.55366069221 312.59139287665 939.18647319221 312.59139287665 942.09272319221 C 312.59139287665 944.43647319221 312.21639287665 946.57709819221 311.46639287665 948.51459819221 C 311.24764287665 949.07709819221 310.95858037665 949.49116069221 310.59920537665 949.75678569221 Z M 302.60701787665 944.53022319221 C 302.48201787665 941.96772319221 301.90389287665 939.78803569221 300.87264287665 937.99116069221 C 299.84139287665 936.19428569221 298.48201787665 934.83491069221 296.79451787665 933.91303569221 C 295.10701787665 932.99116069221 293.26326787665 932.53022319221 291.26326787665 932.53022319221 C 289.32576787665 932.53022319221 288.02889287665 932.88959819221 287.37264287665 933.60834819221 C 286.56014287665 934.60834819221 285.83358037665 936.20991069221 285.19295537665 938.41303569221 C 284.55233037665 940.61616069221 284.18514287665 943.28022319221 284.09139287665 946.40522319221 L 302.60701787665 944.53022319221 Z M 375.00508037665 966.11616069221 C 376.70820537665 966.97553569221 378.23164287665 967.53022319221 379.57539287665 967.78022319221 L 378.96601787665 970.63959819221 C 377.93476787665 971.13959819221 376.11445537665 971.72553569221 373.50508037665 972.39741069221 C 370.89570537665 973.06928569221 368.80976787665 973.40522319221 367.24726787665 973.40522319221 C 365.68476787665 970.24897319221 363.84101787665 967.81147319221 361.71601787665 966.09272319221 C 360.02851787665 968.28022319221 357.92695537665 970.04584819221 355.41133037665 971.38959819221 C 352.89570537665 972.73334819221 350.20039287665 973.40522319221 347.32539287665 973.40522319221 C 344.07539287665 973.40522319221 341.05195537665 972.65522319221 338.25508037665 971.15522319221 C 335.45820537665 969.65522319221 333.17695537665 967.28803569221 331.41133037665 964.05366069221 C 329.64570537665 960.81928569221 328.76289287665 956.71772319221 328.76289287665 951.74897319221 C 328.76289287665 947.09272319221 329.63008037665 942.84272319221 331.36445537665 938.99897319221 C 333.09883037665 935.15522319221 335.52070537665 932.11616069221 338.63008037665 929.88178569221 C 341.73945537665 927.64741069221 345.27851787665 926.53022319221 349.24726787665 926.53022319221 C 351.15351787665 926.53022319221 353.02851787665 926.87397319221 354.87226787665 927.56147319221 C 356.71601787665 928.24897319221 358.45039287665 929.24897319221 360.07539287665 930.56147319221 L 360.07539287665 912.13959819221 L 353.13789287665 908.24897319221 L 353.55976787665 906.09272319221 L 371.41914287665 903.23334819221 L 371.41914287665 963.09272319221 C 372.10664287665 964.24897319221 373.30195537665 965.25678569221 375.00508037665 966.11616069221 Z M 350.55976787665 966.13959819221 C 352.05976787665 966.13959819221 353.69258037665 965.95991069221 355.45820537665 965.60053569221 C 357.22383037665 965.24116069221 358.76289287665 964.78022319221 360.07539287665 964.21772319221 L 360.07539287665 939.28022319221 C 358.82539287665 937.43647319221 357.08320537665 935.99116069221 354.84883037665 934.94428569221 C 352.61445537665 933.89741069221 350.30976787665 933.37397319221 347.93476787665 933.37397319221 C 346.62226787665 933.37397319221 345.50508037665 933.52241069221 344.58320537665 933.81928569221 C 343.66133037665 934.11616069221 342.95039287665 934.71772319221 342.45039287665 935.62397319221 C 340.88789287665 938.24897319221 340.10664287665 942.09272319221 340.10664287665 947.15522319221 C 340.10664287665 950.93647319221 340.77070537665 954.33491069221 342.09883037665 957.35053569221 C 343.42695537665 960.36616069221 345.04414287665 962.70209819221 346.95039287665 964.35834819221 C 348.20039287665 965.54584819221 349.40351787665 966.13959819221 350.55976787665 966.13959819221 Z M 409.95001787665 932.31928569221 C 407.91876787665 933.14741069221 406.29376787665 934.09272319221 405.07501787665 935.15522319221 C 404.26251787665 935.90522319221 403.85626787665 936.85834819221 403.85626787665 938.01459819221 C 403.85626787665 939.04584819221 404.23908037665 939.96772319221 405.00470537665 940.78022319221 C 405.77033037665 941.59272319221 406.87189287665 942.35834819221 408.30939287665 943.07709819221 C 409.71564287665 943.76459819221 411.76251787665 944.54584819221 414.45001787665 945.42084819221 C 416.29376787665 946.04584819221 417.87189287665 946.61616069221 419.18439287665 947.13178569221 C 420.49689287665 947.64741069221 421.70001787665 948.24897319221 422.79376787665 948.93647319221 C 424.45001787665 949.93647319221 425.77814287665 951.24897319221 426.77814287665 952.87397319221 C 427.77814287665 954.49897319221 428.27814287665 956.40522319221 428.27814287665 958.59272319221 C 428.27814287665 961.96772319221 427.38751787665 964.76459819221 425.60626787665 966.98334819221 C 423.82501787665 969.20209819221 421.48126787665 970.82709819221 418.57501787665 971.85834819221 C 415.66876787665 972.88959819221 412.49689287665 973.40522319221 409.05939287665 973.40522319221 C 405.49689287665 973.40522319221 402.45783037665 973.00678569221 399.94220537665 972.20991069221 C 397.42658037665 971.41303569221 395.01251787665 970.24897319221 392.70001787665 968.71772319221 L 394.99689287665 957.42084819221 L 400.20001787665 958.54584819221 L 402.30939287665 967.96772319221 C 404.68439287665 967.96772319221 407.26251787665 967.67866069221 410.04376787665 967.10053569221 C 412.82501787665 966.52241069221 414.93439287665 965.73334819221 416.37189287665 964.73334819221 C 417.37189287665 964.07709819221 417.87189287665 963.09272319221 417.87189287665 961.78022319221 C 417.87189287665 960.87397319221 417.59064287665 960.03803569221 417.02814287665 959.27241069221 C 416.46564287665 958.50678569221 415.55939287665 957.78022319221 414.30939287665 957.09272319221 C 413.18439287665 956.46772319221 411.29376787665 955.67084819221 408.63751787665 954.70209819221 C 408.38751787665 954.60834819221 407.75470537665 954.36616069221 406.73908037665 953.97553569221 C 405.72345537665 953.58491069221 404.78595537665 953.20209819221 403.92658037665 952.82709819221 C 403.06720537665 952.45209819221 402.30939287665 952.07709819221 401.65314287665 951.70209819221 C 396.84064287665 948.95209819221 394.43439287665 945.04584819221 394.43439287665 939.98334819221 C 394.43439287665 936.98334819221 395.31720537665 934.47553569221 397.08283037665 932.45991069221 C 398.84845537665 930.44428569221 401.15314287665 928.95209819221 403.99689287665 927.98334819221 C 406.84064287665 927.01459819221 409.88751787665 926.53022319221 413.13751787665 926.53022319221 C 417.32501787665 926.53022319221 420.71564287665 927.20209819221 423.30939287665 928.54584819221 C 424.37189287665 929.13959819221 425.34064287665 929.83491069221 426.21564287665 930.63178569221 C 427.09064287665 931.42866069221 427.52814287665 932.26459819221 427.52814287665 933.13959819221 C 427.52814287665 934.10834819221 427.13751787665 935.15522319221 426.35626787665 936.28022319221 C 425.57501787665 937.40522319221 424.64533037665 938.35834819221 423.56720537665 939.13959819221 C 422.48908037665 939.92084819221 421.60626787665 940.31147319221 420.91876787665 940.31147319221 C 420.32501787665 940.31147319221 419.66095537665 940.11616069221 418.92658037665 939.72553569221 C 418.19220537665 939.33491069221 417.57501787665 938.90522319221 417.07501787665 938.43647319221 L 415.62189287665 930.70209819221 C 413.87189287665 930.95209819221 411.98126787665 931.49116069221 409.95001787665 932.31928569221 Z M 447.26214287665 939.16303569221 C 449.13714287665 935.36616069221 451.76214287665 932.31147319221 455.13714287665 929.99897319221 C 458.51214287665 927.68647319221 462.32464287665 926.53022319221 466.57464287665 926.53022319221 C 470.69964287665 926.53022319221 474.40276787665 927.33491069221 477.68401787665 928.94428569221 C 480.96526787665 930.55366069221 483.57464287665 933.01459819221 485.51214287665 936.32709819221 C 487.44964287665 939.63959819221 488.41839287665 943.76459819221 488.41839287665 948.70209819221 C 488.41839287665 952.98334819221 487.46526787665 957.02241069221 485.55901787665 960.81928569221 C 483.65276787665 964.61616069221 481.02776787665 967.66303569221 477.68401787665 969.95991069221 C 474.34026787665 972.25678569221 470.63714287665 973.40522319221 466.57464287665 973.40522319221 C 462.35589287665 973.40522319221 458.58245537665 972.60834819221 455.25433037665 971.01459819221 C 451.92620537665 969.42084819221 449.29339287665 966.97553569221 447.35589287665 963.67866069221 C 445.41839287665 960.38178569221 444.44964287665 956.24897319221 444.44964287665 951.28022319221 C 444.44964287665 946.99897319221 445.38714287665 942.95991069221 447.26214287665 939.16303569221 Z M 472.76214287665 966.44428569221 C 473.79339287665 966.11616069221 474.60589287665 965.62397319221 475.19964287665 964.96772319221 C 475.85589287665 964.15522319221 476.37151787665 962.70991069221 476.74651787665 960.63178569221 C 477.12151787665 958.55366069221 477.30901787665 956.53022319221 477.30901787665 954.56147319221 C 477.30901787665 950.21772319221 476.69964287665 946.41303569221 475.48089287665 943.14741069221 C 474.26214287665 939.88178569221 472.58245537665 937.37397319221 470.44183037665 935.62397319221 C 468.30120537665 933.87397319221 465.88714287665 932.99897319221 463.19964287665 932.99897319221 C 460.63714287665 932.99897319221 458.77776787665 933.63959819221 457.62151787665 934.92084819221 C 457.02776787665 935.70209819221 456.53558037665 937.13178569221 456.14495537665 939.20991069221 C 455.75433037665 941.28803569221 455.55901787665 943.37397319221 455.55901787665 945.46772319221 C 455.55901787665 949.34272319221 456.08245537665 952.90522319221 457.12933037665 956.15522319221 C 458.17620537665 959.40522319221 459.74651787665 962.01459819221 461.84026787665 963.98334819221 C 463.93401787665 965.95209819221 466.44964287665 966.93647319221 469.38714287665 966.93647319221 C 470.60589287665 966.93647319221 471.73089287665 966.77241069221 472.76214287665 966.44428569221 Z M 511.43364287665 965.62397319221 L 511.43364287665 934.73334819221 L 503.93364287665 931.82709819221 L 504.77739287665 927.70209819221 L 511.43364287665 927.70209819221 C 511.43364287665 921.98334819221 512.12895537665 917.33491069221 513.51958037665 913.75678569221 C 514.91020537665 910.17866069221 517.08989287665 907.53022319221 520.05864287665 905.81147319221 C 523.02739287665 904.09272319221 526.90239287665 903.23334819221 531.68364287665 903.23334819221 C 533.80864287665 903.23334819221 535.62114287665 903.36616069221 537.12114287665 903.63178569221 C 538.62114287665 903.89741069221 539.98051787665 904.32709819221 541.19926787665 904.92084819221 C 542.26176787665 905.42084819221 543.16801787665 906.07709819221 543.91801787665 906.88959819221 C 544.66801787665 907.70209819221 545.04301787665 908.51459819221 545.04301787665 909.32709819221 C 545.04301787665 910.20209819221 544.62895537665 911.20991069221 543.80083037665 912.35053569221 C 542.97270537665 913.49116069221 541.99614287665 914.47553569221 540.87114287665 915.30366069221 C 539.74614287665 916.13178569221 538.77739287665 916.54584819221 537.96489287665 916.54584819221 C 537.37114287665 916.54584819221 536.69926787665 916.35053569221 535.94926787665 915.95991069221 C 535.19926787665 915.56928569221 534.51176787665 915.12397319221 533.88676787665 914.62397319221 L 532.24614287665 906.46772319221 C 529.58989287665 907.03022319221 527.56645537665 908.29584819221 526.17583037665 910.26459819221 C 524.78520537665 912.23334819221 523.86333037665 914.63178569221 523.41020537665 917.45991069221 C 522.95708037665 920.28803569221 522.73051787665 923.70209819221 522.73051787665 927.70209819221 L 537.44926787665 927.70209819221 L 536.79301787665 931.40522319221 L 522.73051787665 934.63959819221 L 522.73051787665 966.09272319221 L 534.87114287665 968.76459819221 L 534.12114287665 972.23334819221 L 504.07426787665 972.23334819221 L 504.82426787665 968.38959819221 L 511.43364287665 965.62397319221 Z M 549.16764287665 927.70209819221 L 556.01139287665 927.70209819221 L 557.51139287665 917.71772319221 L 567.35514287665 913.68647319221 L 567.35514287665 927.70209819221 L 582.07389287665 927.70209819221 L 581.32389287665 931.78022319221 L 567.35514287665 934.73334819221 L 567.35514287665 955.03022319221 C 567.35514287665 957.49897319221 567.67545537665 959.75678569221 568.31608037665 961.80366069221 C 568.95670537665 963.85053569221 569.87076787665 965.26459819221 571.05826787665 966.04584819221 C 571.58951787665 966.38959819221 572.32389287665 966.56147319221 573.26139287665 966.56147319221 C 574.85514287665 966.56147319221 577.79264287665 966.12397319221 582.07389287665 965.24897319221 C 582.76139287665 965.12397319221 583.10514287665 965.06147319221 583.10514287665 965.06147319221 L 583.90201787665 966.98334819221 C 582.05826787665 968.60834819221 579.77701787665 970.08491069221 577.05826787665 971.41303569221 C 574.33951787665 972.74116069221 571.73014287665 973.40522319221 569.23014287665 973.40522319221 C 565.10514287665 973.40522319221 561.87076787665 972.10834819221 559.52701787665 969.51459819221 C 557.18326787665 966.92084819221 556.01139287665 962.88959819221 556.01139287665 957.42084819221 L 556.01139287665 934.73334819221 L 548.32389287665 931.87397319221 L 549.16764287665 927.70209819221 Z" style=""/>
</svg>